<?xml version="1.0" encoding="UTF-8" standalone="no"?>
<!-- Generator: Adobe Illustrator 16.0.0, SVG Export Plug-In . SVG Version: 6.00 Build 0)  -->

<svg
   xmlns:dc="http://purl.org/dc/elements/1.1/"
   xmlns:cc="http://creativecommons.org/ns#"
   xmlns:rdf="http://www.w3.org/1999/02/22-rdf-syntax-ns#"
   xmlns:svg="http://www.w3.org/2000/svg"
   xmlns="http://www.w3.org/2000/svg"
   xmlns:sodipodi="http://sodipodi.sourceforge.net/DTD/sodipodi-0.dtd"
   xmlns:inkscape="http://www.inkscape.org/namespaces/inkscape"
   version="1.1"
   id="Layer_1"
   x="0px"
   y="0px"
   width="250%"
   height="250%"
   viewBox="0 0 195.73839 195.19502"
   preserveAspectRatio="X200Y200 meet"
   enable-background="new 0 0 1800 1200"
   xml:space="preserve"
   inkscape:version="0.48.4 r9939"
   sodipodi:docname="logo.svg"><metadata
     id="metadata3071"><rdf:RDF><cc:Work
         rdf:about=""><dc:format>image/svg+xml</dc:format><dc:type
           rdf:resource="http://purl.org/dc/dcmitype/StillImage" /></cc:Work></rdf:RDF></metadata><defs
     id="defs3069" /><sodipodi:namedview
     pagecolor="#ffffff"
     bordercolor="#666666"
     borderopacity="1"
     objecttolerance="10"
     gridtolerance="10"
     guidetolerance="10"
     id="namedview3067"
     showgrid="false"
     fit-margin-top="45"
     fit-margin-left="10"
     fit-margin-right="10"
     fit-margin-bottom="55"
     inkscape:zoom="1.88"
     inkscape:cx="97.157431"
     inkscape:cy="98.019042"
     inkscape:window-x="47"
     inkscape:window-y="24"
     inkscape:window-maximized="1"
     inkscape:current-layer="Layer_1" /><path
     clip-rule="evenodd"
     d="m 97.679432,140.03 c -22.346,0 -44.507,0 -66.669,0 -0.023,-0.102 -0.047,-0.204 -0.071,-0.306 0.367,-0.106 0.728,-0.265 1.103,-0.313 8.494,-1.101 16.875,-2.664 24.617,-6.545 3.636,-1.822 7.029,-4.063 8.989,-7.8 0.661,-1.26 1.142,-2.777 1.16,-4.185 0.131,-10.313 0.112,-20.629 0.165,-30.943999 0.033,-6.473 0.114,-12.947 0.155,-19.42 0.007,-1.219 0.394,-2.1 1.433,-2.893 9.355,-7.141 18.662,-14.345 27.985,-21.527003 0.313,-0.241 0.648,-0.452 1.133,-0.787 0,31.685003 0,63.217002 0,94.720002 z"
     id="path3057"
     inkscape:connector-curvature="0"
     style="fill-rule:evenodd" /><path
     clip-rule="evenodd"
     d="m 119.03343,44.999998 c 0,0.706 0,1.183 0,1.658 0,25.027003 -0.048,50.055003 0.041,75.081002 0.018,4.92 1.47,9.515 4.695,13.4 1.681,2.026 3.83,3.337 6.303,4.166 0.321,0.108 0.618,0.288 0.926,0.436 -0.028,0.099 -0.058,0.197 -0.086,0.296 -9.998,0 -19.996,0 -30.129,0 -0.02,-0.388 -0.059,-0.811 -0.059,-1.232 -0.004,-26.986 0.001,-53.971999 -0.023,-80.957999 -0.001,-0.868 0.267,-1.359 0.992,-1.82 5.556,-3.534 11.084,-7.111003 16.622,-10.672003 0.155,-0.1 0.333,-0.166 0.718,-0.355 z"
     id="path3059"
     inkscape:connector-curvature="0"
     style="fill-rule:evenodd" /><path
     clip-rule="evenodd"
     d="m 133.51143,140.145 c 0,-2.274 0.001,-4.424 0,-6.573 -0.005,-14.679 0.003,-29.356 -0.042,-44.033999 -0.003,-1.1 0.296,-1.604 1.368,-1.947 5.475,-1.753 10.921,-3.594 16.379,-5.399 0.333,-0.11 0.677,-0.186 1.148,-0.314 0,3.238 0,6.35 0,9.462 -0.001,9.757999 -0.087,19.517999 0.024,29.273999 0.091,7.875 3.666,13.886 10.336,18.06 0.526,0.33 1.062,0.646 1.561,1.2 -10.224,0.292 -20.419,0.237 -30.774,0.271 z"
     id="path3061"
     inkscape:connector-curvature="0"
     style="fill-rule:evenodd" /><path
     clip-rule="evenodd"
     d="m 27.774432,104.971 c 0,11.836 0,23.405 0,35.116 -0.434,0.02 -0.856,0.054 -1.278,0.054 -3.635,0.005 -7.278,-0.136 -10.904,0.049 -2.792,0.141 -5.403,-2.708 -5.513,-5.683 -0.1250006,-3.391 -0.062,-6.789 -0.072,-10.185 -0.006,-2.157 -0.022,-4.315 0.026,-6.472 0.009,-0.415 0.18,-1.002 0.481,-1.208 5.663,-3.867 11.355,-7.691 17.26,-11.671 z"
     id="path3063"
     inkscape:connector-curvature="0"
     style="fill-rule:evenodd" /><path
     clip-rule="evenodd"
     d="m 185.73643,115.99 c 0,3.666 0.005,7.177 -0.001,10.688 -0.004,2.359 -0.038,4.718 -0.032,7.077 0.01,3.677 -2.232,6.216 -5.894,6.329 -4.033,0.123 -8.074,0.011 -12.112,0.043 -0.964,0.008 -0.856,-0.589 -0.856,-1.192 -0.004,-5.278 -0.01,-10.557 -0.016,-15.834 -0.001,-1.279 0.028,-2.56 -0.012,-3.838 -0.021,-0.646 0.197,-0.933 0.852,-1.013 5.966,-0.733 11.929,-1.488 18.071,-2.26 z"
     id="path3065"
     inkscape:connector-curvature="0"
     style="fill-rule:evenodd" /></svg>